<?xml version="1.0" encoding="UTF-8"?>
<!DOCTYPE svg PUBLIC "-//W3C//DTD SVG 1.1//EN" "http://www.w3.org/Graphics/SVG/1.1/DTD/svg11.dtd">
<svg version="1.1" xmlns="http://www.w3.org/2000/svg" xmlns:xlink="http://www.w3.org/1999/xlink" x="0" y="0" width="401.518" height="340.736" viewBox="0, 0, 401.518, 340.736">
  <g id="Layer_2" transform="translate(-106.051, -177.9)">
    <path d="M294.843,180.4 C313.772,180.811 332.656,182.537 351.526,184.009 C354.825,184.267 357.568,184.479 360.196,184.68 C399.587,187.689 420.604,188.447 429.498,186.391 C429.938,186.464 429.801,186.35 429.987,186.611 L430.073,186.588 L430.263,186.646 C436.236,189.862 443.833,195.284 449.24,200.771 C456.801,208.444 459.843,215.744 456.688,222.054 C454.171,227.088 448.796,244.937 449.822,246.989 C452.599,252.541 454.217,257.486 457.279,268.605 C457.453,269.236 457.535,269.534 457.627,269.867 C459.715,277.483 461.897,285.129 465.611,292.139 C465.731,292.176 465.662,292.144 465.799,292.273 C466.156,292.764 468.417,300.041 468.772,301.059 C469.896,304.284 470.962,306.646 472.036,308.079 C472.978,309.334 474.284,309.976 477.407,310.987 C477.83,311.124 478.041,311.192 478.257,311.263 C482.079,312.518 483.993,313.665 485.191,316.061 C486.994,319.667 488.711,322.722 492.099,328.499 C492.413,329.033 492.413,329.033 492.726,329.567 C492.973,329.987 493.165,330.316 493.352,330.635 C498.301,338.839 502.725,347.34 505.264,356.619 C505.552,356.689 505.399,356.611 505.626,356.986 C506.757,364.335 505.691,368.493 502.815,372.072 C502.493,372.473 501.226,373.93 500.951,374.281 C500.472,374.893 500.169,375.407 499.989,375.945 C499.805,376.499 499.908,376.774 500.296,376.992 C500.687,377.212 501.289,377.338 502.286,377.438 C502.435,377.453 502.446,377.454 502.851,377.491 C504.343,377.629 504.874,377.734 505.278,378.138 C506.427,379.287 504.468,393.509 503.318,396.958 C496.332,417.916 488.596,435.785 479.235,451.181 C469.143,468.12 455.779,482.912 438.832,493.128 C420.909,506.364 400.337,515.755 377.865,516.696 C377.695,517.108 377.842,516.949 377.39,517.136 C356.126,517.136 341.975,515.892 326.921,512.128 C323.548,511.285 319.784,511.226 315.561,511.843 C311.595,512.423 307.602,513.501 302.184,515.301 C301.142,515.647 297.548,516.87 296.825,517.11 C291.29,517.253 285.659,515.959 280.239,514.915 C273.995,513.711 268.936,512.664 262.591,511.243 C254.145,509.351 245.538,507.514 237.358,504.617 L237.423,504.806 C237.522,505.064 237.394,505.353 237.136,505.452 C236.878,505.551 236.589,505.423 236.49,505.165 C231.912,493.262 231.782,472.525 237.789,463.514 C238.748,462.075 238.21,461.143 235.852,459.171 C235.621,458.978 235.51,458.885 235.391,458.784 C233.173,456.908 232.492,455.649 233.628,453.944 C234.171,453.13 235.307,453.19 237.017,453.743 C237.326,453.843 237.649,453.958 238.003,454.093 C238.002,454.093 239.613,454.734 239.783,454.776 C241.057,455.095 241.839,454.521 243.137,452.7 C243.09,452.767 243.45,452.26 243.544,452.129 C244.716,450.507 245.564,449.876 246.856,450.199 C247.519,450.365 248.419,451.249 249.924,453.054 C250.725,454.012 253.949,458.071 254.278,458.478 C254.952,459.311 255.556,460.042 256.132,460.717 C258.886,463.947 260.967,465.852 262.433,466.315 C263.931,466.788 264.751,465.492 264.751,461.503 C264.751,457.862 253.787,443.918 241.275,431.533 C234.836,425.16 228.759,419.968 224.007,416.883 C218.831,413.522 215.552,412.849 214.518,414.916 C211.261,421.429 210.422,426.302 209.858,436.872 C209.444,444.64 208.975,448.057 207.334,452.184 C205.196,457.561 201.279,462.172 194.792,466.496 C186.829,471.805 177.36,473.441 168.558,470.508 C166.474,469.813 164.633,470.403 161.711,472.233 C158.198,474.434 157.633,474.702 156.283,474.252 C132.646,466.373 115.301,448.505 114.332,426.989 C114.32,426.714 114.533,426.48 114.809,426.467 L114.94,426.515 C116.286,423.511 114.882,419.296 114.018,416.328 C113.659,415.177 113.245,413.969 112.734,412.559 C112.769,412.656 110.971,407.813 110.612,406.736 C104.234,387.602 113.412,356.318 127.793,341.937 C129.086,340.645 130.233,339.156 131.825,336.822 C131.907,336.701 133.301,334.636 133.706,334.052 C135.131,331.996 136.216,330.662 137.388,329.639 L137.561,329.541 C137.684,329.553 137.882,329.521 137.991,329.607 C140.271,327.195 143.345,325.737 146.251,324.236 C146.542,324.089 147.56,323.574 147.74,323.483 C154.046,320.287 156.832,318.338 158.283,315.437 C159.835,312.333 160.552,309.164 161.546,302.338 C162.647,294.781 163.14,292.097 164.389,288.121 C168.273,275.122 178.665,266.751 190.739,261.572 C190.905,259.218 191.978,257.102 193.047,255.049 C193.1,254.949 193.1,254.949 193.154,254.849 C193.912,253.563 194.443,252.185 194.974,250.796 L194.852,250.743 C194.626,250.584 194.571,250.273 194.729,250.046 C197.968,245.419 241.939,201.408 244.847,199.954 C246.564,199.095 247.682,199.895 248.991,202.006 C249.074,202.14 249.358,202.607 249.414,202.698 C249.57,202.95 249.69,203.134 249.803,203.292 C250.157,203.786 250.375,203.931 250.53,203.88 C251.558,203.537 251.93,202.249 252.277,198.652 C252.33,198.106 252.338,198.027 252.361,197.797 C252.653,194.928 253.025,193.353 253.927,192.176 C254.849,190.983 255.745,190.927 257.143,190.742 C259.341,191.115 258.391,190.855 260.021,191.404 C260.279,191.503 260.408,191.793 260.309,192.05 L260.295,192.065 C264.933,192.304 269.14,190.2 273.224,188.263 C274.283,187.741 275.388,187.174 276.726,186.472 C277.426,186.105 279.927,184.781 279.746,184.876 C280.929,184.251 281.791,183.803 282.607,183.391 C284.684,182.341 286.255,181.638 287.562,181.202 C289.912,180.449 292.411,180.501 294.843,180.4 z" fill-opacity="0" stroke="#2d3033" stroke-width="3" stroke-linecap="round" stroke-linejoin="round"/>
    <g>
      <path d="M295.086,181.4 C313.916,181.631 332.67,183.795 351.448,185.006 C354.748,185.264 357.491,185.476 360.12,185.677 C370.73,186.48 381.344,187.273 391.97,187.829 C402.369,188.373 412.922,189.034 423.331,188.245 C426.817,187.98 427.029,187.891 429.632,187.383 C429.656,187.463 429.632,187.396 429.789,187.526 C435.68,190.698 443.197,196.064 448.528,201.473 C455.821,208.875 458.702,215.789 455.793,221.607 C453.113,226.968 447.693,244.967 448.928,247.436 C451.665,252.91 453.271,257.815 456.315,268.87 C456.489,269.501 456.571,269.799 456.663,270.133 C459.846,281.675 461.83,287.435 465.166,293.434 L465.261,293.546 C466.218,296.124 466.923,298.791 467.828,301.388 C468.984,304.705 470.083,307.141 471.236,308.679 C472.348,310.161 473.775,310.862 477.099,311.939 C477.522,312.076 477.731,312.143 477.945,312.214 C481.531,313.391 483.254,314.423 484.296,316.508 C486.112,320.14 487.837,323.209 491.237,329.005 C491.55,329.539 491.55,329.539 491.864,330.073 C492.11,330.493 492.303,330.822 492.489,331.14 C499.282,342.743 502.4,349.224 504.439,357.391 C504.677,357.713 504.541,357.68 504.717,357.706 C505.386,362.504 505.248,367.515 502.035,371.446 C501.731,371.825 500.458,373.288 500.163,373.665 C499.62,374.36 499.261,374.967 499.041,375.629 C498.706,376.634 498.998,377.408 499.806,377.863 C500.357,378.174 501.054,378.319 502.186,378.433 C502.34,378.448 502.35,378.449 502.759,378.487 C503.92,378.594 504.419,378.693 504.571,378.845 C505.308,379.582 503.371,393.636 502.369,396.642 C495.405,417.534 487.697,435.338 478.38,450.662 C467.098,469.22 453.891,483.288 438.307,492.277 L438.286,492.295 L438.262,492.306 C417.43,507.457 396.499,515.977 376.148,515.72 C375.703,515.898 375.843,515.745 375.678,516.13 C359.394,516.068 343.007,515.238 327.163,511.158 C323.651,510.28 319.759,510.219 315.416,510.854 C311.379,511.444 307.337,512.535 301.868,514.352 C300.822,514.7 297.227,515.922 296.509,516.162 C292.826,516.752 283.943,514.636 280.218,513.909 C265.667,511.071 250.973,508.138 236.923,503.359 C233.136,492.398 232.639,474.368 238.621,464.069 C239.989,462.017 239.217,460.682 236.493,458.404 C236.263,458.211 236.154,458.12 236.036,458.021 C234.173,456.444 233.72,455.608 234.46,454.499 C234.63,454.243 235.446,454.286 236.709,454.694 C237,454.788 237.307,454.898 237.647,455.028 C237.544,454.988 239.295,455.685 239.54,455.747 C241.357,456.201 242.433,455.411 243.952,453.281 C243.906,453.345 244.263,452.842 244.355,452.715 C245.303,451.403 245.867,450.983 246.614,451.17 C246.967,451.258 247.838,452.114 249.157,453.694 C249.948,454.642 253.165,458.691 253.501,459.107 C254.18,459.946 254.789,460.684 255.371,461.366 C258.254,464.747 260.417,466.727 262.132,467.268 C264.512,468.02 265.751,466.062 265.751,461.503 C265.751,457.456 254.746,443.461 241.978,430.823 C235.495,424.405 229.37,419.173 224.551,416.044 C222.176,414.548 219.69,413.039 216.843,412.73 C215.353,412.843 214.373,413.03 213.624,414.468 C210.288,421.14 209.43,426.12 208.86,436.819 C208.451,444.48 207.992,447.822 206.405,451.814 C204.345,456.994 200.562,461.448 194.237,465.664 C186.521,470.808 177.369,472.39 168.875,469.559 C166.42,468.741 164.337,469.409 161.18,471.386 C158.067,473.336 157.502,473.605 156.6,473.304 C136.547,465.973 116.782,450.76 115.385,427.73 L115.449,427.67 C117.035,425.405 116.699,421.567 114.972,416.031 C114.608,414.863 114.19,413.641 113.674,412.218 C113.703,412.299 111.914,407.478 111.561,406.42 C105.31,387.667 114.374,356.771 128.5,342.644 C129.847,341.297 131.027,339.767 132.651,337.385 C132.737,337.26 134.127,335.199 134.528,334.621 C135.474,333.299 136.399,331.92 137.605,330.815 L137.608,330.819 C137.822,330.994 138.137,330.962 138.312,330.749 C139.821,328.905 142.049,327.491 146.704,325.128 C146.994,324.981 148.011,324.467 148.192,324.375 C154.699,321.077 157.593,319.053 159.177,315.884 C160.794,312.652 161.526,309.415 162.536,302.482 C163.629,294.98 164.116,292.328 165.343,288.421 C169.607,275.984 178.947,267.206 191.182,262.47 C191.525,262.36 191.456,262.467 191.532,262.32 L192.206,262.031 C192.462,261.927 192.585,261.635 192.481,261.379 C192.377,261.124 192.086,261 191.83,261.104 L191.812,261.112 C192.092,259.108 192.974,257.28 193.93,255.519 C193.983,255.419 193.983,255.419 194.036,255.319 C195.336,252.88 195.876,251.63 196.252,249.81 L196.243,249.76 C211.37,232.358 228.5,216.58 245.294,200.848 C246.37,200.311 247.077,200.816 248.141,202.533 C248.221,202.662 248.505,203.128 248.564,203.223 C248.73,203.493 248.861,203.694 248.99,203.875 C249.574,204.689 250.137,205.065 250.846,204.828 C252.46,204.291 252.877,202.845 253.273,198.748 C253.325,198.204 253.333,198.126 253.356,197.898 C253.628,195.216 253.973,193.76 254.721,192.785 C255.882,191.532 257.064,191.613 258.641,192.007 L258.535,192.129 C258.448,192.391 258.59,192.674 258.852,192.761 C262.164,193.866 266.811,192.54 273.666,189.16 C274.734,188.634 275.846,188.063 277.191,187.358 C277.893,186.989 280.395,185.664 280.213,185.761 C281.391,185.138 282.249,184.692 283.058,184.283 C285.095,183.254 286.628,182.568 287.879,182.151 C290.229,181.508 292.655,181.393 295.086,181.4 z M321.836,408.5 L321.836,408.5 C319.704,408.539 316.69,408.205 315.235,410.182 C312.946,414.76 311.947,424.272 312.804,432.197 C313.246,436.281 314.144,439.556 315.454,441.538 C316.572,442.996 318.009,444.184 319.938,443.477 L319.98,444.823 C320.009,445.098 320.256,445.297 320.53,445.268 C320.805,445.239 321.004,444.993 320.975,444.718 C320.908,443.228 320.829,443.748 320.932,443.141 L321.554,442.789 C321.784,442.636 321.846,442.326 321.693,442.096 C321.552,441.956 321.382,441.784 321.145,441.898 C322.62,433.26 337.037,432.769 343.593,431.813 C344.446,431.725 345.338,431.637 346.393,431.537 C346.807,431.498 347.23,431.459 347.784,431.407 C348.475,431.343 348.858,431.307 349.161,431.279 C356.781,430.57 360.21,430.076 363.032,429.058 C366.817,427.693 368.119,425.451 366.478,422.17 C365.241,419.695 354.07,415.346 341.155,411.978 C334.811,410.37 328.394,408.846 321.836,408.5 z" fill="#2d3033"/>
      <path d="M295.086,181.4 C313.916,181.631 332.67,183.795 351.448,185.006 C354.748,185.264 357.491,185.476 360.12,185.677 C370.73,186.48 381.344,187.273 391.97,187.829 C402.369,188.373 412.922,189.034 423.331,188.245 C426.817,187.98 427.029,187.891 429.632,187.383 C429.656,187.463 429.632,187.396 429.789,187.526 C435.68,190.698 443.197,196.064 448.528,201.473 C455.821,208.875 458.702,215.789 455.793,221.607 C453.113,226.968 447.693,244.967 448.928,247.436 C451.665,252.91 453.271,257.815 456.315,268.87 C456.489,269.501 456.571,269.799 456.663,270.133 C459.846,281.675 461.83,287.435 465.166,293.434 L465.261,293.546 C466.218,296.124 466.923,298.791 467.828,301.388 C468.984,304.705 470.083,307.141 471.236,308.679 C472.348,310.161 473.775,310.862 477.099,311.939 C477.522,312.076 477.731,312.143 477.945,312.214 C481.531,313.391 483.254,314.423 484.296,316.508 C486.112,320.14 487.837,323.209 491.237,329.005 C491.55,329.539 491.55,329.539 491.864,330.073 C492.11,330.493 492.303,330.822 492.489,331.14 C499.282,342.743 502.4,349.224 504.439,357.391 C504.677,357.713 504.541,357.68 504.717,357.706 C505.386,362.504 505.248,367.515 502.035,371.446 C501.731,371.825 500.458,373.288 500.163,373.665 C499.62,374.36 499.261,374.967 499.041,375.629 C498.706,376.634 498.998,377.408 499.806,377.863 C500.357,378.174 501.054,378.319 502.186,378.433 C502.34,378.448 502.35,378.449 502.759,378.487 C503.92,378.594 504.419,378.693 504.571,378.845 C505.308,379.582 503.371,393.636 502.369,396.642 C495.405,417.534 487.697,435.338 478.38,450.662 C467.098,469.22 453.891,483.288 438.307,492.277 L438.286,492.295 L438.262,492.306 C417.43,507.457 396.499,515.977 376.148,515.72 C375.703,515.898 375.843,515.745 375.678,516.13 C359.394,516.068 343.007,515.238 327.163,511.158 C323.651,510.28 319.759,510.219 315.416,510.854 C311.379,511.444 307.337,512.535 301.868,514.352 C300.822,514.7 297.227,515.922 296.509,516.162 C292.826,516.752 283.943,514.636 280.218,513.909 C265.667,511.071 250.973,508.138 236.923,503.359 C233.136,492.398 232.639,474.368 238.621,464.069 C239.989,462.017 239.217,460.682 236.493,458.404 C236.263,458.211 236.154,458.12 236.036,458.021 C234.173,456.444 233.72,455.608 234.46,454.499 C234.63,454.243 235.446,454.286 236.709,454.694 C237,454.788 237.307,454.898 237.647,455.028 C237.544,454.988 239.295,455.685 239.54,455.747 C241.357,456.201 242.433,455.411 243.952,453.281 C243.906,453.345 244.263,452.842 244.355,452.715 C245.303,451.403 245.867,450.983 246.614,451.17 C246.967,451.258 247.838,452.114 249.157,453.694 C249.948,454.642 253.165,458.691 253.501,459.107 C254.18,459.946 254.789,460.684 255.371,461.366 C258.254,464.747 260.417,466.727 262.132,467.268 C264.512,468.02 265.751,466.062 265.751,461.503 C265.751,457.456 254.746,443.461 241.978,430.823 C235.495,424.405 229.37,419.173 224.551,416.044 C222.176,414.548 219.69,413.039 216.843,412.73 C215.353,412.843 214.373,413.03 213.624,414.468 C210.288,421.14 209.43,426.12 208.86,436.819 C208.451,444.48 207.992,447.822 206.405,451.814 C204.345,456.994 200.562,461.448 194.237,465.664 C186.521,470.808 177.369,472.39 168.875,469.559 C166.42,468.741 164.337,469.409 161.18,471.386 C158.067,473.336 157.502,473.605 156.6,473.304 C136.547,465.973 116.782,450.76 115.385,427.73 L115.449,427.67 C117.035,425.405 116.699,421.567 114.972,416.031 C114.608,414.863 114.19,413.641 113.674,412.218 C113.703,412.299 111.914,407.478 111.561,406.42 C105.31,387.667 114.374,356.771 128.5,342.644 C129.847,341.297 131.027,339.767 132.651,337.385 C132.737,337.26 134.127,335.199 134.528,334.621 C135.474,333.299 136.399,331.92 137.605,330.815 L137.608,330.819 C137.822,330.994 138.137,330.962 138.312,330.749 C139.821,328.905 142.049,327.491 146.704,325.128 C146.994,324.981 148.011,324.467 148.192,324.375 C154.699,321.077 157.593,319.053 159.177,315.884 C160.794,312.652 161.526,309.415 162.536,302.482 C163.629,294.98 164.116,292.328 165.343,288.421 C169.607,275.984 178.947,267.206 191.182,262.47 C191.525,262.36 191.456,262.467 191.532,262.32 L192.206,262.031 C192.462,261.927 192.585,261.635 192.481,261.379 C192.377,261.124 192.086,261 191.83,261.104 L191.812,261.112 C192.092,259.108 192.974,257.28 193.93,255.519 C193.983,255.419 193.983,255.419 194.036,255.319 C195.336,252.88 195.876,251.63 196.252,249.81 L196.243,249.76 C211.37,232.358 228.5,216.58 245.294,200.848 C246.37,200.311 247.077,200.816 248.141,202.533 C248.221,202.662 248.505,203.128 248.564,203.223 C248.73,203.493 248.861,203.694 248.99,203.875 C249.574,204.689 250.137,205.065 250.846,204.828 C252.46,204.291 252.877,202.845 253.273,198.748 C253.325,198.204 253.333,198.126 253.356,197.898 C253.628,195.216 253.973,193.76 254.721,192.785 C255.882,191.532 257.064,191.613 258.641,192.007 L258.535,192.129 C258.448,192.391 258.59,192.674 258.852,192.761 C262.164,193.866 266.811,192.54 273.666,189.16 C274.734,188.634 275.846,188.063 277.191,187.358 C277.893,186.989 280.395,185.664 280.213,185.761 C281.391,185.138 282.249,184.692 283.058,184.283 C285.095,183.254 286.628,182.568 287.879,182.151 C290.229,181.508 292.655,181.393 295.086,181.4 z M321.836,408.5 L321.836,408.5 C319.704,408.539 316.69,408.205 315.235,410.182 C312.946,414.76 311.947,424.272 312.804,432.197 C313.246,436.281 314.144,439.556 315.454,441.538 C316.572,442.996 318.009,444.184 319.938,443.477 L319.98,444.823 C320.009,445.098 320.256,445.297 320.53,445.268 C320.805,445.239 321.004,444.993 320.975,444.718 C320.908,443.228 320.829,443.748 320.932,443.141 L321.554,442.789 C321.784,442.636 321.846,442.326 321.693,442.096 C321.552,441.956 321.382,441.784 321.145,441.898 C322.62,433.26 337.037,432.769 343.593,431.813 C344.446,431.725 345.338,431.637 346.393,431.537 C346.807,431.498 347.23,431.459 347.784,431.407 C348.475,431.343 348.858,431.307 349.161,431.279 C356.781,430.57 360.21,430.076 363.032,429.058 C366.817,427.693 368.119,425.451 366.478,422.17 C365.241,419.695 354.07,415.346 341.155,411.978 C334.811,410.37 328.394,408.846 321.836,408.5 z" fill-opacity="0" stroke="#2d3033" stroke-width="3" stroke-linecap="round" stroke-linejoin="round"/>
    </g>
  </g>
</svg>
