<?xml version="1.0" encoding="UTF-8"?>
<!DOCTYPE svg PUBLIC "-//W3C//DTD SVG 1.1//EN" "http://www.w3.org/Graphics/SVG/1.1/DTD/svg11.dtd">
<svg version="1.1" xmlns="http://www.w3.org/2000/svg" xmlns:xlink="http://www.w3.org/1999/xlink" x="0" y="0" width="405.49" height="346.865" viewBox="0, 0, 405.49, 346.865">
  <defs>
    <clipPath id="Clip_1">
      <path d="M116.255,144.568 L523.745,144.568 L523.745,495.432 L116.255,495.432 z M334.541,379.668 C341.099,380.014 347.516,381.538 353.859,383.146 C366.775,386.514 377.946,390.863 379.183,393.338 C380.824,396.619 379.522,398.861 375.737,400.226 C372.915,401.244 369.486,401.737 361.866,402.447 C361.563,402.475 361.18,402.511 360.488,402.575 C359.935,402.627 359.512,402.666 359.098,402.705 C358.043,402.805 357.151,402.893 356.298,402.981 C349.742,403.937 335.325,404.428 333.85,413.066 C334.087,412.952 334.257,413.124 334.398,413.264 C334.551,413.494 334.489,413.804 334.259,413.957 L333.637,414.309 C333.533,414.916 333.613,414.396 333.68,415.886 C333.709,416.161 333.51,416.407 333.235,416.436 C332.96,416.465 332.714,416.266 332.685,415.991 L332.643,414.645 C330.714,415.352 329.276,414.164 328.159,412.706 C326.849,410.724 325.951,407.448 325.509,403.364 C324.652,395.44 325.651,385.928 327.94,381.35 C329.395,379.373 332.409,379.707 334.541,379.668 L334.541,379.668 L334.541,379.668 z M307.79,152.568 L307.79,152.568 C305.36,152.561 302.934,152.676 300.584,153.319 C299.333,153.736 297.8,154.422 295.763,155.451 C294.954,155.86 294.096,156.306 292.918,156.929 C293.1,156.832 290.598,158.157 289.896,158.526 C288.551,159.231 287.439,159.802 286.371,160.328 C279.516,163.708 274.869,165.034 271.557,163.929 C271.295,163.842 271.153,163.559 271.24,163.297 L271.346,163.175 C269.769,162.781 268.587,162.7 267.426,163.953 C266.678,164.928 266.333,166.384 266.061,169.066 C266.038,169.294 266.03,169.372 265.978,169.916 C265.582,174.013 265.164,175.459 263.551,175.996 C262.842,176.233 262.279,175.857 261.695,175.043 C261.566,174.862 261.435,174.661 261.268,174.391 C261.21,174.296 260.926,173.83 260.846,173.701 C259.781,171.984 259.075,171.479 257.999,172.016 C241.205,187.748 224.075,203.526 208.948,220.928 L208.957,220.978 C208.581,222.798 208.041,224.047 206.741,226.487 C206.688,226.587 206.688,226.587 206.634,226.687 C205.679,228.447 204.797,230.276 204.517,232.28 L204.534,232.272 C204.79,232.168 205.082,232.292 205.186,232.547 C205.29,232.803 205.167,233.095 204.911,233.199 L204.237,233.488 C204.161,233.635 204.23,233.528 203.887,233.638 C191.652,238.374 182.311,247.151 178.048,259.588 C176.821,263.496 176.334,266.148 175.241,273.65 C174.231,280.583 173.498,283.82 171.882,287.052 C170.298,290.221 167.404,292.245 160.897,295.543 C160.716,295.635 159.699,296.149 159.409,296.296 C154.754,298.659 152.526,300.073 151.017,301.917 C150.842,302.13 150.527,302.162 150.313,301.987 L150.31,301.983 C149.104,303.088 148.179,304.467 147.233,305.789 C146.832,306.367 145.442,308.428 145.356,308.553 C143.732,310.935 142.552,312.465 141.205,313.812 C127.079,327.939 118.015,358.835 124.266,377.588 C124.619,378.646 126.408,383.467 126.379,383.386 C126.894,384.809 127.313,386.031 127.677,387.199 C129.404,392.735 129.74,396.573 128.154,398.838 L128.09,398.898 C129.487,421.928 149.252,437.14 169.304,444.472 C170.207,444.773 170.772,444.504 173.885,442.554 C177.041,440.577 179.125,439.909 181.579,440.727 C190.074,443.558 199.226,441.976 206.942,436.832 C213.266,432.616 217.05,428.162 219.109,422.982 C220.697,418.99 221.156,415.648 221.565,407.987 C222.135,397.287 222.993,392.308 226.329,385.636 C227.078,384.198 228.058,384.011 229.548,383.898 C232.395,384.207 234.881,385.716 237.256,387.212 C242.075,390.341 248.2,395.573 254.683,401.991 C267.451,414.629 278.456,428.624 278.456,432.671 C278.456,437.23 277.217,439.188 274.837,438.436 C273.122,437.895 270.959,435.915 268.076,432.534 C267.494,431.852 266.884,431.114 266.205,430.275 C265.87,429.859 262.653,425.81 261.862,424.862 C260.543,423.282 259.672,422.426 259.318,422.338 C258.572,422.151 258.008,422.57 257.06,423.883 C256.968,424.01 256.611,424.513 256.657,424.449 C255.138,426.579 254.062,427.369 252.245,426.915 C251.999,426.853 250.249,426.156 250.352,426.196 C250.012,426.066 249.705,425.956 249.414,425.862 C248.151,425.454 247.335,425.411 247.165,425.667 C246.425,426.776 246.878,427.612 248.741,429.189 C248.859,429.288 248.968,429.379 249.198,429.572 C251.922,431.85 252.694,433.185 251.326,435.237 C245.344,445.536 245.84,463.566 249.628,474.527 C263.678,479.305 278.372,482.239 292.923,485.077 C296.647,485.803 305.53,487.92 309.214,487.33 C309.932,487.09 313.527,485.868 314.573,485.52 C320.042,483.703 324.084,482.612 328.121,482.022 C332.464,481.386 336.355,481.448 339.868,482.326 C355.712,486.406 372.099,487.236 388.383,487.298 C388.548,486.913 388.407,487.066 388.853,486.888 C409.203,487.145 430.135,478.625 450.967,463.474 L450.991,463.463 L451.011,463.445 C466.596,454.456 479.803,440.388 491.085,421.83 C500.402,406.506 508.11,388.702 515.074,367.81 C516.076,364.804 518.012,350.75 517.276,350.013 C517.124,349.861 516.625,349.762 515.464,349.655 C515.055,349.617 515.044,349.616 514.891,349.601 C513.759,349.487 513.062,349.342 512.51,349.031 C511.703,348.576 511.41,347.802 511.745,346.797 C511.966,346.135 512.325,345.528 512.868,344.833 C513.163,344.456 514.436,342.993 514.74,342.614 C517.953,338.683 518.091,333.672 517.422,328.874 C517.245,328.848 517.382,328.881 517.144,328.559 C515.105,320.392 511.987,313.911 505.194,302.308 C505.008,301.99 504.815,301.661 504.568,301.241 C504.255,300.707 504.255,300.707 503.942,300.173 C500.542,294.377 498.817,291.308 497.001,287.676 C495.959,285.591 494.235,284.559 490.65,283.382 C490.436,283.311 490.227,283.244 489.804,283.107 C486.48,282.03 485.053,281.329 483.941,279.847 C482.788,278.309 481.689,275.873 480.533,272.556 C479.628,269.959 478.923,267.292 477.966,264.713 L477.871,264.602 C474.535,258.603 472.551,252.843 469.368,241.301 C469.276,240.967 469.194,240.669 469.02,240.038 C465.976,228.983 464.37,224.078 461.633,218.604 C460.398,216.134 465.818,198.136 468.498,192.775 C471.407,186.957 468.526,180.043 461.233,172.641 C455.902,167.232 448.385,161.866 442.494,158.694 C442.337,158.564 442.361,158.631 442.336,158.551 C439.734,159.059 439.522,159.148 436.035,159.413 C425.627,160.202 415.074,159.541 404.674,158.997 C394.049,158.441 383.434,157.648 372.825,156.845 C370.196,156.644 367.453,156.432 364.153,156.174 C345.375,154.963 326.621,152.799 307.79,152.568 z"/>
    </clipPath>
    <filter id="Shadow_2">
      <feGaussianBlur in="SourceAlpha" stdDeviation="2.5"/>
      <feOffset dx="0" dy="2" result="offsetblur"/>
      <feFlood flood-color="#000000"/>
      <feComposite in2="offsetblur" operator="in"/>
    </filter>
  </defs>
  <g id="Layer_2" transform="translate(-117.255, -147.568)">
    <g>
      <path d="M307.79,152.568 C326.621,152.799 345.375,154.963 364.153,156.174 C367.453,156.432 370.196,156.644 372.825,156.845 C383.434,157.648 394.049,158.441 404.674,158.997 C415.074,159.541 425.627,160.202 436.035,159.413 C439.522,159.148 439.734,159.059 442.336,158.551 C442.361,158.631 442.337,158.564 442.494,158.694 C448.385,161.866 455.902,167.232 461.233,172.641 C468.526,180.043 471.407,186.957 468.498,192.775 C465.818,198.136 460.398,216.134 461.633,218.604 C464.37,224.078 465.976,228.983 469.02,240.038 C469.194,240.669 469.276,240.967 469.368,241.301 C472.551,252.843 474.535,258.603 477.871,264.602 L477.966,264.713 C478.923,267.292 479.628,269.959 480.533,272.556 C481.689,275.873 482.788,278.309 483.941,279.847 C485.053,281.329 486.48,282.03 489.804,283.107 C490.227,283.244 490.436,283.311 490.65,283.382 C494.235,284.559 495.959,285.591 497.001,287.676 C498.817,291.308 500.542,294.377 503.942,300.173 C504.255,300.707 504.255,300.707 504.568,301.241 C504.815,301.661 505.008,301.99 505.194,302.308 C511.987,313.911 515.105,320.392 517.144,328.559 C517.382,328.881 517.245,328.848 517.422,328.874 C518.091,333.672 517.953,338.683 514.74,342.614 C514.436,342.993 513.163,344.456 512.868,344.833 C512.325,345.528 511.966,346.135 511.745,346.797 C511.41,347.802 511.703,348.576 512.51,349.031 C513.062,349.342 513.759,349.487 514.891,349.601 C515.044,349.616 515.055,349.617 515.464,349.655 C516.625,349.762 517.124,349.861 517.276,350.013 C518.012,350.75 516.076,364.804 515.074,367.81 C508.11,388.702 500.402,406.506 491.085,421.83 C479.803,440.388 466.596,454.456 451.011,463.445 L450.991,463.463 L450.967,463.474 C430.135,478.625 409.203,487.145 388.853,486.888 C388.407,487.066 388.548,486.913 388.383,487.298 C372.099,487.236 355.712,486.406 339.868,482.326 C336.355,481.448 332.464,481.386 328.121,482.022 C324.084,482.612 320.042,483.703 314.573,485.52 C313.527,485.868 309.932,487.09 309.214,487.33 C305.53,487.92 296.647,485.803 292.923,485.077 C278.372,482.239 263.678,479.305 249.628,474.527 C245.84,463.566 245.344,445.536 251.326,435.237 C252.694,433.185 251.922,431.85 249.198,429.572 C248.968,429.379 248.859,429.288 248.741,429.189 C246.878,427.612 246.425,426.776 247.165,425.667 C247.335,425.411 248.151,425.454 249.414,425.862 C249.705,425.956 250.012,426.066 250.352,426.196 C250.249,426.156 251.999,426.853 252.245,426.915 C254.062,427.369 255.138,426.579 256.657,424.449 C256.611,424.513 256.968,424.01 257.06,423.883 C258.008,422.57 258.572,422.151 259.318,422.338 C259.672,422.426 260.543,423.282 261.862,424.862 C262.653,425.81 265.87,429.859 266.205,430.275 C266.884,431.114 267.494,431.852 268.076,432.534 C270.959,435.915 273.122,437.895 274.837,438.436 C277.217,439.188 278.456,437.23 278.456,432.671 C278.456,428.624 267.451,414.629 254.683,401.991 C248.2,395.573 242.075,390.341 237.256,387.212 C234.881,385.716 232.395,384.207 229.548,383.898 C228.058,384.011 227.078,384.198 226.329,385.636 C222.993,392.308 222.135,397.287 221.565,407.987 C221.156,415.648 220.697,418.99 219.109,422.982 C217.05,428.162 213.266,432.616 206.942,436.832 C199.226,441.976 190.074,443.558 181.579,440.727 C179.125,439.909 177.041,440.577 173.885,442.554 C170.772,444.504 170.207,444.773 169.304,444.472 C149.252,437.14 129.487,421.928 128.09,398.898 L128.154,398.838 C129.74,396.573 129.404,392.735 127.677,387.199 C127.313,386.031 126.894,384.809 126.379,383.386 C126.408,383.467 124.619,378.646 124.266,377.588 C118.015,358.835 127.079,327.939 141.205,313.812 C142.552,312.465 143.732,310.935 145.356,308.553 C145.442,308.428 146.832,306.367 147.233,305.789 C148.179,304.467 149.104,303.088 150.31,301.983 L150.313,301.987 C150.527,302.162 150.842,302.13 151.017,301.917 C152.526,300.073 154.754,298.659 159.409,296.296 C159.699,296.149 160.716,295.635 160.897,295.543 C167.404,292.245 170.298,290.221 171.882,287.052 C173.498,283.82 174.231,280.583 175.241,273.65 C176.334,266.148 176.821,263.496 178.048,259.588 C182.311,247.151 191.652,238.374 203.887,233.638 C204.23,233.528 204.161,233.635 204.237,233.488 L204.911,233.199 C205.167,233.095 205.29,232.803 205.186,232.547 C205.082,232.292 204.79,232.168 204.534,232.272 L204.517,232.28 C204.797,230.276 205.679,228.447 206.634,226.687 C206.688,226.587 206.688,226.587 206.741,226.487 C208.041,224.047 208.581,222.798 208.957,220.978 L208.948,220.928 C224.075,203.526 241.205,187.748 257.999,172.016 C259.075,171.479 259.781,171.984 260.846,173.701 C260.926,173.83 261.21,174.296 261.268,174.391 C261.435,174.661 261.566,174.862 261.695,175.043 C262.279,175.857 262.842,176.233 263.551,175.996 C265.164,175.459 265.582,174.013 265.978,169.916 C266.03,169.372 266.038,169.294 266.061,169.066 C266.333,166.384 266.678,164.928 267.426,163.953 C268.587,162.7 269.769,162.781 271.346,163.175 L271.24,163.297 C271.153,163.559 271.295,163.842 271.557,163.929 C274.869,165.034 279.516,163.708 286.371,160.328 C287.439,159.802 288.551,159.231 289.896,158.526 C290.598,158.157 293.1,156.832 292.918,156.929 C294.096,156.306 294.954,155.86 295.763,155.451 C297.8,154.422 299.333,153.736 300.584,153.319 C302.934,152.676 305.36,152.561 307.79,152.568 L307.79,152.568 z M334.541,379.668 L334.541,379.668 L334.541,379.668 C332.409,379.707 329.395,379.373 327.94,381.35 C325.651,385.928 324.652,395.44 325.509,403.364 C325.951,407.448 326.849,410.724 328.159,412.706 C329.276,414.164 330.714,415.352 332.643,414.645 L332.685,415.991 C332.714,416.266 332.96,416.465 333.235,416.436 C333.51,416.407 333.709,416.161 333.68,415.886 C333.613,414.396 333.533,414.916 333.637,414.309 L334.259,413.957 C334.489,413.804 334.551,413.494 334.398,413.264 C334.257,413.124 334.087,412.952 333.85,413.066 C335.325,404.428 349.742,403.937 356.298,402.981 C357.151,402.893 358.043,402.805 359.098,402.705 C359.512,402.666 359.935,402.627 360.488,402.575 C361.18,402.511 361.563,402.475 361.866,402.447 C369.486,401.737 372.915,401.244 375.737,400.226 C379.522,398.861 380.824,396.619 379.183,393.338 C377.946,390.863 366.775,386.514 353.859,383.146 C347.516,381.538 341.099,380.014 334.541,379.668 z" clip-path="url(#Clip_1)" filter="url(#Shadow_2)" fill="rgba(0,0,0,0.75)"/>
      <path d="M307.79,152.568 C326.621,152.799 345.375,154.963 364.153,156.174 C367.453,156.432 370.196,156.644 372.825,156.845 C383.434,157.648 394.049,158.441 404.674,158.997 C415.074,159.541 425.627,160.202 436.035,159.413 C439.522,159.148 439.734,159.059 442.336,158.551 C442.361,158.631 442.337,158.564 442.494,158.694 C448.385,161.866 455.902,167.232 461.233,172.641 C468.526,180.043 471.407,186.957 468.498,192.775 C465.818,198.136 460.398,216.134 461.633,218.604 C464.37,224.078 465.976,228.983 469.02,240.038 C469.194,240.669 469.276,240.967 469.368,241.301 C472.551,252.843 474.535,258.603 477.871,264.602 L477.966,264.713 C478.923,267.292 479.628,269.959 480.533,272.556 C481.689,275.873 482.788,278.309 483.941,279.847 C485.053,281.329 486.48,282.03 489.804,283.107 C490.227,283.244 490.436,283.311 490.65,283.382 C494.235,284.559 495.959,285.591 497.001,287.676 C498.817,291.308 500.542,294.377 503.942,300.173 C504.255,300.707 504.255,300.707 504.568,301.241 C504.815,301.661 505.008,301.99 505.194,302.308 C511.987,313.911 515.105,320.392 517.144,328.559 C517.382,328.881 517.245,328.848 517.422,328.874 C518.091,333.672 517.953,338.683 514.74,342.614 C514.436,342.993 513.163,344.456 512.868,344.833 C512.325,345.528 511.966,346.135 511.745,346.797 C511.41,347.802 511.703,348.576 512.51,349.031 C513.062,349.342 513.759,349.487 514.891,349.601 C515.044,349.616 515.055,349.617 515.464,349.655 C516.625,349.762 517.124,349.861 517.276,350.013 C518.012,350.75 516.076,364.804 515.074,367.81 C508.11,388.702 500.402,406.506 491.085,421.83 C479.803,440.388 466.596,454.456 451.011,463.445 L450.991,463.463 L450.967,463.474 C430.135,478.625 409.203,487.145 388.853,486.888 C388.407,487.066 388.548,486.913 388.383,487.298 C372.099,487.236 355.712,486.406 339.868,482.326 C336.355,481.448 332.464,481.386 328.121,482.022 C324.084,482.612 320.042,483.703 314.573,485.52 C313.527,485.868 309.932,487.09 309.214,487.33 C305.53,487.92 296.647,485.803 292.923,485.077 C278.372,482.239 263.678,479.305 249.628,474.527 C245.84,463.566 245.344,445.536 251.326,435.237 C252.694,433.185 251.922,431.85 249.198,429.572 C248.968,429.379 248.859,429.288 248.741,429.189 C246.878,427.612 246.425,426.776 247.165,425.667 C247.335,425.411 248.151,425.454 249.414,425.862 C249.705,425.956 250.012,426.066 250.352,426.196 C250.249,426.156 251.999,426.853 252.245,426.915 C254.062,427.369 255.138,426.579 256.657,424.449 C256.611,424.513 256.968,424.01 257.06,423.883 C258.008,422.57 258.572,422.151 259.318,422.338 C259.672,422.426 260.543,423.282 261.862,424.862 C262.653,425.81 265.87,429.859 266.205,430.275 C266.884,431.114 267.494,431.852 268.076,432.534 C270.959,435.915 273.122,437.895 274.837,438.436 C277.217,439.188 278.456,437.23 278.456,432.671 C278.456,428.624 267.451,414.629 254.683,401.991 C248.2,395.573 242.075,390.341 237.256,387.212 C234.881,385.716 232.395,384.207 229.548,383.898 C228.058,384.011 227.078,384.198 226.329,385.636 C222.993,392.308 222.135,397.287 221.565,407.987 C221.156,415.648 220.697,418.99 219.109,422.982 C217.05,428.162 213.266,432.616 206.942,436.832 C199.226,441.976 190.074,443.558 181.579,440.727 C179.125,439.909 177.041,440.577 173.885,442.554 C170.772,444.504 170.207,444.773 169.304,444.472 C149.252,437.14 129.487,421.928 128.09,398.898 L128.154,398.838 C129.74,396.573 129.404,392.735 127.677,387.199 C127.313,386.031 126.894,384.809 126.379,383.386 C126.408,383.467 124.619,378.646 124.266,377.588 C118.015,358.835 127.079,327.939 141.205,313.812 C142.552,312.465 143.732,310.935 145.356,308.553 C145.442,308.428 146.832,306.367 147.233,305.789 C148.179,304.467 149.104,303.088 150.31,301.983 L150.313,301.987 C150.527,302.162 150.842,302.13 151.017,301.917 C152.526,300.073 154.754,298.659 159.409,296.296 C159.699,296.149 160.716,295.635 160.897,295.543 C167.404,292.245 170.298,290.221 171.882,287.052 C173.498,283.82 174.231,280.583 175.241,273.65 C176.334,266.148 176.821,263.496 178.048,259.588 C182.311,247.151 191.652,238.374 203.887,233.638 C204.23,233.528 204.161,233.635 204.237,233.488 L204.911,233.199 C205.167,233.095 205.29,232.803 205.186,232.547 C205.082,232.292 204.79,232.168 204.534,232.272 L204.517,232.28 C204.797,230.276 205.679,228.447 206.634,226.687 C206.688,226.587 206.688,226.587 206.741,226.487 C208.041,224.047 208.581,222.798 208.957,220.978 L208.948,220.928 C224.075,203.526 241.205,187.748 257.999,172.016 C259.075,171.479 259.781,171.984 260.846,173.701 C260.926,173.83 261.21,174.296 261.268,174.391 C261.435,174.661 261.566,174.862 261.695,175.043 C262.279,175.857 262.842,176.233 263.551,175.996 C265.164,175.459 265.582,174.013 265.978,169.916 C266.03,169.372 266.038,169.294 266.061,169.066 C266.333,166.384 266.678,164.928 267.426,163.953 C268.587,162.7 269.769,162.781 271.346,163.175 L271.24,163.297 C271.153,163.559 271.295,163.842 271.557,163.929 C274.869,165.034 279.516,163.708 286.371,160.328 C287.439,159.802 288.551,159.231 289.896,158.526 C290.598,158.157 293.1,156.832 292.918,156.929 C294.096,156.306 294.954,155.86 295.763,155.451 C297.8,154.422 299.333,153.736 300.584,153.319 C302.934,152.676 305.36,152.561 307.79,152.568 z M334.541,379.668 L334.541,379.668 C332.409,379.707 329.395,379.373 327.94,381.35 C325.651,385.928 324.652,395.44 325.509,403.364 C325.951,407.448 326.849,410.724 328.159,412.706 C329.276,414.164 330.714,415.352 332.643,414.645 L332.685,415.991 C332.714,416.266 332.96,416.465 333.235,416.436 C333.51,416.407 333.709,416.161 333.68,415.886 C333.613,414.396 333.533,414.916 333.637,414.309 L334.259,413.957 C334.489,413.804 334.551,413.494 334.398,413.264 C334.257,413.124 334.087,412.952 333.85,413.066 C335.325,404.428 349.742,403.937 356.298,402.981 C357.151,402.893 358.043,402.805 359.098,402.705 C359.512,402.666 359.935,402.627 360.488,402.575 C361.18,402.511 361.563,402.475 361.866,402.447 C369.486,401.737 372.915,401.244 375.737,400.226 C379.522,398.861 380.824,396.619 379.183,393.338 C377.946,390.863 366.775,386.514 353.859,383.146 C347.516,381.538 341.099,380.014 334.541,379.668 z" fill="#A1D6E2"/>
    </g>
  </g>
</svg>
