<?xml version="1.0" encoding="UTF-8" standalone="no"?>
<!DOCTYPE svg PUBLIC "-//W3C//DTD SVG 1.1//EN" "http://www.w3.org/Graphics/SVG/1.1/DTD/svg11.dtd">
<svg version="1.1" xmlns="http://www.w3.org/2000/svg" xmlns:xlink="http://www.w3.org/1999/xlink" preserveAspectRatio="xMidYMid meet" viewBox="0 0 640 640" width="640" height="640"><defs><path d="M640 320C640 496.61 496.61 640 320 640C143.39 640 0 496.61 0 320C0 143.39 143.39 0 320 0C496.61 0 640 143.39 640 320Z" id="c1NSdnZbQR"></path><path d="M271.11 82.5C282.18 82.5 291.15 91.47 291.15 102.55C291.15 193.54 291.15 446.46 291.15 537.45C291.15 548.53 282.18 557.5 271.11 557.5C248.12 557.5 199.19 557.5 176.2 557.5C165.13 557.5 156.15 548.53 156.15 537.45C156.15 446.46 156.15 193.54 156.15 102.55C156.15 91.47 165.13 82.5 176.2 82.5C199.19 82.5 248.12 82.5 271.11 82.5Z" id="capMIzlxZ"></path><path d="M463.8 82.5C474.87 82.5 483.85 91.47 483.85 102.55C483.85 193.54 483.85 446.46 483.85 537.45C483.85 548.53 474.87 557.5 463.8 557.5C440.81 557.5 391.88 557.5 368.89 557.5C357.82 557.5 348.85 548.53 348.85 537.45C348.85 446.46 348.85 193.54 348.85 102.55C348.85 91.47 357.82 82.5 368.89 82.5C391.88 82.5 440.81 82.5 463.8 82.5Z" id="c5x7VD7C"></path></defs><g><g><g><use xlink:href="#c1NSdnZbQR" opacity="1" fill="#000000" fill-opacity="1"></use></g><g><use xlink:href="#capMIzlxZ" opacity="1" fill="#1995ad" fill-opacity="1"></use></g><g><use xlink:href="#c5x7VD7C" opacity="1" fill="#ffffff" fill-opacity="1"></use></g></g></g></svg>