<?xml version="1.0" encoding="UTF-8"?>
<!DOCTYPE svg PUBLIC "-//W3C//DTD SVG 1.1//EN" "http://www.w3.org/Graphics/SVG/1.1/DTD/svg11.dtd">
<svg version="1.1" xmlns="http://www.w3.org/2000/svg" xmlns:xlink="http://www.w3.org/1999/xlink" x="0" y="0" width="640" height="400" viewBox="0, 0, 640, 400">
  <g id="Layer_3" transform="translate(-0, -120)">
    <path d="M205.939,120 L640,120 L434.061,520 L0,520 L205.939,120 z" fill="#2D3033"/>
    <path d="M381.891,179.2 C398.143,179.385 413.533,181.116 429.336,182.085 C432.094,182.291 434.387,182.461 436.587,182.622 C445.467,183.264 454.355,183.899 463.35,184.343 C472.154,184.778 481.043,185.308 490.404,184.676 C493.54,184.464 493.76,184.393 496.229,183.986 C496.217,184.05 496.224,183.997 496.307,184.101 C500.114,186.639 504.43,190.931 506.83,195.259 C510.113,201.18 509.766,206.711 504.845,211.366 C500.309,215.655 488.191,230.053 488.246,232.029 C488.368,236.408 487.742,240.332 485.831,249.176 C485.722,249.681 485.67,249.92 485.613,250.186 C483.623,259.42 482.972,264.028 483.397,268.828 L483.434,268.917 C483.203,270.979 482.716,273.113 482.432,275.191 C482.069,277.844 482.02,279.793 482.388,281.023 C482.743,282.209 483.693,282.77 486.135,283.631 C486.446,283.741 486.599,283.795 486.756,283.851 C489.384,284.793 490.455,285.619 490.501,287.287 C490.582,290.192 490.815,292.648 491.379,297.284 C491.431,297.712 491.431,297.712 491.483,298.139 C491.524,298.475 491.556,298.737 491.587,298.992 C492.705,308.275 492.742,313.46 491.149,319.993 C491.223,320.25 491.118,320.224 491.26,320.245 C489.865,324.084 487.681,328.092 483.273,331.237 C482.853,331.54 481.145,332.71 480.734,333.012 C479.976,333.568 479.414,334.054 478.951,334.583 C478.245,335.387 478.18,336.007 478.694,336.371 C479.045,336.619 479.59,336.736 480.526,336.827 C480.653,336.839 480.661,336.84 481.001,336.87 C481.965,336.956 482.357,337.035 482.427,337.156 C482.763,337.746 475.293,348.989 473.186,351.393 C458.534,368.108 444.51,382.35 430.11,394.61 C412.672,409.456 395.413,420.711 378.181,427.902 L378.156,427.916 L378.131,427.925 C353.806,440.046 332.125,446.862 314.564,446.656 C314.104,446.799 314.289,446.676 313.987,446.984 C299.877,446.934 285.992,446.271 273.918,443.007 C271.231,442.304 267.878,442.255 263.846,442.763 C260.098,443.236 256.14,444.108 250.644,445.562 C249.592,445.84 245.968,446.818 245.245,447.01 C241.805,447.482 234.965,445.789 232.031,445.208 C220.568,442.937 209.02,440.59 198.791,436.767 C200.018,427.999 207.012,413.575 216.448,405.335 C218.48,403.694 218.361,402.626 216.934,400.803 C216.813,400.649 216.756,400.576 216.695,400.497 C215.727,399.236 215.678,398.567 216.777,397.679 C217.031,397.475 217.721,397.509 218.649,397.836 C218.863,397.911 219.085,397.999 219.326,398.102 C219.253,398.071 220.486,398.629 220.673,398.678 C222.064,399.041 223.323,398.409 225.519,396.705 C225.453,396.756 225.97,396.354 226.102,396.252 C227.466,395.202 228.128,394.867 228.699,395.016 C228.97,395.087 229.373,395.771 229.867,397.036 C230.163,397.794 231.288,401.033 231.409,401.366 C231.653,402.037 231.878,402.627 232.102,403.173 C233.212,405.878 234.275,407.462 235.541,407.895 C237.297,408.496 239.179,406.93 241.057,403.283 C242.724,400.045 238.935,388.849 233.056,378.738 C230.071,373.604 226.909,369.418 224.014,366.915 C222.568,365.718 221.031,364.511 218.687,364.264 C217.347,364.355 216.42,364.504 215.177,365.655 C209.533,370.992 206.737,374.976 201.835,383.535 C198.325,389.664 196.55,392.338 193.527,395.532 C189.606,399.676 184.487,403.239 177.26,406.612 C168.443,410.727 159.846,411.992 153.638,409.727 C151.845,409.073 149.761,409.607 146.206,411.189 C142.7,412.749 142.099,412.964 141.44,412.723 C127.051,406.858 116.158,394.688 124.431,376.265 L124.512,376.216 C126.821,374.404 128.11,371.334 128.892,366.905 C129.056,365.97 129.196,364.993 129.335,363.855 C129.327,363.92 129.759,360.063 129.889,359.216 C132.186,344.214 152.78,319.497 170.862,308.196 C172.586,307.118 174.24,305.894 176.631,303.988 C176.757,303.888 178.813,302.24 179.399,301.777 C180.765,300.719 182.136,299.616 183.638,298.732 L183.639,298.735 C183.753,298.875 184.039,298.85 184.279,298.679 C186.348,297.204 188.865,296.073 193.879,294.183 C194.192,294.065 195.286,293.654 195.481,293.58 C202.489,290.942 205.834,289.323 208.515,286.788 C211.249,284.202 213.219,281.612 216.951,276.066 C220.989,270.064 222.504,267.942 225.179,264.817 C234.003,254.867 245.727,247.845 258.299,244.056 C258.642,243.968 258.538,244.054 258.665,243.936 L259.369,243.705 C259.634,243.622 259.861,243.388 259.876,243.184 C259.891,242.979 259.689,242.881 259.424,242.964 L259.405,242.97 C260.474,241.367 261.993,239.904 263.547,238.495 C263.635,238.416 263.635,238.416 263.722,238.336 C265.855,236.384 266.839,235.384 267.915,233.928 L267.928,233.888 C288.227,219.967 309.597,207.344 330.656,194.759 C331.811,194.329 332.216,194.733 332.433,196.107 C332.45,196.21 332.504,196.583 332.516,196.659 C332.549,196.874 332.58,197.035 332.618,197.18 C332.789,197.832 333.123,198.132 333.836,197.943 C335.458,197.513 336.416,196.356 338.447,193.079 C338.717,192.643 338.756,192.581 338.87,192.399 C340.211,190.253 341.109,189.089 342.16,188.308 C343.684,187.306 344.677,187.37 345.884,187.686 L345.742,187.783 C345.558,187.993 345.565,188.22 345.756,188.289 C348.177,189.173 352.757,188.112 360.1,185.408 C361.244,184.987 362.444,184.531 363.902,183.966 C364.664,183.672 367.382,182.612 367.184,182.689 C368.463,182.191 369.391,181.834 370.262,181.507 C372.455,180.683 374.068,180.135 375.325,179.801 C377.631,179.286 379.784,179.195 381.891,179.2 z M311.576,360.88 L311.576,360.88 C309.709,360.912 307.23,360.644 305.153,362.226 C301.281,365.888 296.495,373.498 293.975,379.837 C292.677,383.105 292.108,385.725 292.429,387.31 C292.798,388.477 293.556,389.427 295.522,388.862 L295.004,389.939 C294.917,390.159 295.048,390.318 295.299,390.295 C295.549,390.271 295.823,390.074 295.911,389.855 C296.467,388.663 296.184,389.079 296.524,388.593 L297.209,388.312 C297.471,388.189 297.653,387.941 297.614,387.757 C297.55,387.645 297.473,387.508 297.22,387.598 C302.059,380.688 314.777,380.295 320.862,379.531 C321.639,379.46 322.449,379.39 323.407,379.31 C323.782,379.279 324.165,379.247 324.667,379.206 C325.293,379.155 325.641,379.126 325.915,379.104 C332.823,378.536 336.003,378.141 338.872,377.327 C342.72,376.235 344.774,374.441 344.701,371.816 C344.646,369.836 336.74,366.357 326.915,363.662 C322.07,362.376 317.126,361.157 311.576,360.88 z" fill="#A1D6E2"/>
  </g>
</svg>
